<?xml version="1.0" standalone="no"?>
<!DOCTYPE svg PUBLIC "-//W3C//DTD SVG 20010904//EN"
 "http://www.w3.org/TR/2001/REC-SVG-20010904/DTD/svg10.dtd">
<svg version="1.0" xmlns="http://www.w3.org/2000/svg"
 width="1470.000000pt" height="419.000000pt" viewBox="0 0 1470.000000 419.000000"
 preserveAspectRatio="xMidYMid meet">

<g transform="translate(0.000000,419.000000) scale(0.100000,-0.100000)"
fill="#000000" stroke="none">
<path d="M11869 4126 c-119 -42 -184 -164 -159 -295 27 -145 132 -219 293
-209 86 6 138 30 190 87 45 50 61 106 55 197 -7 113 -70 196 -169 224 -48 14
-167 12 -210 -4z"/>
<path d="M7748 4119 c-54 -30 -319 -75 -555 -94 l-83 -7 0 -33 c0 -30 3 -33
38 -39 24 -3 49 -17 67 -36 l30 -31 3 -797 c2 -438 0 -830 -3 -870 -8 -86 -22
-106 -90 -124 -42 -11 -45 -15 -45 -45 l0 -33 410 0 410 0 0 34 c0 31 -3 34
-43 44 -87 22 -82 -19 -85 607 l-2 553 47 30 c100 64 191 63 250 -2 61 -66 63
-86 63 -636 0 -487 0 -498 -21 -524 -11 -14 -35 -29 -52 -34 -27 -7 -33 -14
-35 -40 l-3 -32 400 0 401 0 0 30 c0 17 -6 32 -12 34 -7 2 -32 9 -55 15 -25 7
-48 21 -55 34 -10 17 -14 147 -18 532 -5 503 -6 511 -28 567 -51 127 -136 208
-256 245 -82 24 -264 24 -356 -1 -79 -21 -198 -77 -239 -112 l-31 -26 0 391
c0 364 -1 391 -18 400 -11 6 -24 6 -34 0z"/>
<path d="M6215 3990 c-378 -59 -657 -293 -769 -646 -46 -146 -51 -188 -50
-409 0 -197 2 -216 28 -309 83 -302 273 -515 539 -607 106 -36 187 -49 317
-49 317 0 570 142 760 428 l51 75 -24 24 -23 24 -70 -42 c-89 -54 -153 -82
-235 -103 -73 -18 -211 -21 -279 -5 -166 38 -307 178 -380 377 -79 216 -91
546 -30 801 57 235 182 362 360 362 191 1 341 -162 450 -490 37 -110 41 -116
68 -119 35 -4 32 -24 64 332 25 289 34 261 -92 300 -151 48 -216 57 -425 61
-110 2 -227 0 -260 -5z"/>
<path d="M9750 3961 c-52 -21 -198 -78 -323 -126 -220 -85 -228 -89 -225 -114
2 -20 13 -29 51 -43 135 -50 392 -61 517 -23 73 23 133 66 155 111 35 75 -1
226 -56 231 -13 1 -67 -15 -119 -36z"/>
<path d="M940 3931 c0 -28 3 -30 55 -41 30 -6 65 -20 77 -30 l23 -18 0 -789
c0 -735 -1 -792 -18 -840 -26 -73 -78 -118 -156 -134 -58 -11 -61 -13 -61 -40
l0 -29 315 0 315 0 0 29 c0 27 -4 30 -42 36 -138 23 -196 94 -217 265 -10 77
-37 1367 -29 1375 2 2 129 -342 283 -763 153 -422 295 -809 313 -859 l34 -93
92 0 91 0 305 844 305 844 3 -776 2 -776 -22 -23 c-11 -12 -37 -25 -57 -29
-66 -11 -71 -14 -71 -45 l0 -29 440 0 440 0 0 30 c0 33 -3 35 -64 45 -21 3
-49 17 -62 30 l-24 24 0 843 c0 734 2 846 15 865 14 20 44 33 108 47 22 5 27
12 27 36 l0 30 -374 0 -374 0 -45 -122 c-24 -68 -122 -340 -217 -605 -96 -266
-176 -483 -180 -483 -4 0 -84 217 -180 483 -95 265 -193 537 -217 605 l-45
122 -394 0 -394 0 0 -29z"/>
<path d="M12178 3485 c-98 -36 -415 -85 -550 -85 -45 0 -58 -3 -58 -15 0 -22
-7 -19 -41 19 -70 81 -209 105 -330 57 -72 -28 -166 -88 -230 -148 l-49 -46 0
101 c0 118 -3 121 -92 92 -113 -37 -400 -80 -535 -80 l-63 0 0 -33 c0 -31 3
-34 47 -48 28 -9 54 -25 67 -42 21 -28 21 -37 21 -567 l0 -538 -25 -27 c-14
-14 -44 -31 -67 -38 -40 -10 -43 -14 -43 -44 l0 -33 445 0 445 0 0 34 c0 33
-2 34 -47 41 -67 10 -106 28 -131 60 l-22 28 2 495 3 496 42 30 c48 33 134 47
173 26 39 -21 63 -94 69 -210 l6 -105 68 -3 c93 -4 162 18 221 69 73 65 90
106 91 219 0 52 -4 105 -8 117 -7 20 -6 21 20 13 99 -29 93 9 93 -625 l0 -547
-28 -28 c-16 -16 -45 -32 -65 -35 -34 -7 -37 -10 -37 -41 l0 -34 410 0 410 0
0 34 c0 31 -3 34 -37 41 -20 3 -49 19 -65 35 l-28 28 0 664 c0 671 -1 690 -34
687 -6 0 -28 -7 -48 -14z"/>
<path d="M3945 3479 c-218 -30 -390 -119 -444 -232 -40 -82 -25 -183 37 -249
71 -77 247 -89 404 -29 l26 10 -14 48 c-24 78 -29 210 -11 274 26 88 88 131
152 105 66 -28 85 -110 85 -371 l0 -182 -157 -38 c-369 -89 -536 -177 -608
-322 -40 -81 -47 -202 -16 -284 59 -156 189 -239 374 -239 139 0 261 48 365
145 l60 56 11 -34 c18 -53 74 -112 133 -137 43 -19 70 -24 143 -24 146 1 261
46 371 147 67 62 72 71 50 100 -13 17 -16 17 -45 3 -41 -22 -98 -21 -110 2 -5
10 -11 193 -13 422 -4 344 -7 414 -22 464 -53 186 -187 304 -396 351 -91 20
-280 27 -375 14z m199 -1266 c-68 -60 -156 -58 -215 5 -81 86 -77 275 7 398
37 55 123 122 196 153 l43 18 3 -271 3 -271 -37 -32z"/>
<path d="M9530 3484 c-14 -2 -52 -9 -85 -15 -291 -52 -517 -286 -581 -599 -18
-93 -15 -289 6 -365 73 -262 237 -432 488 -507 98 -29 277 -36 376 -14 169 38
339 162 446 324 l50 76 -23 24 -24 24 -50 -31 c-94 -58 -156 -74 -283 -75
-107 -1 -119 1 -173 27 -138 68 -229 221 -260 440 -3 21 -2 37 4 37 5 0 174
25 375 55 201 30 370 55 375 55 14 0 10 111 -6 175 -46 174 -176 301 -360 349
-61 16 -230 28 -275 20z m144 -104 c57 -50 69 -95 74 -267 l4 -152 -23 -5
c-13 -3 -80 -15 -149 -26 -69 -11 -136 -23 -149 -26 l-24 -5 7 123 c10 195 40
302 98 354 49 45 113 47 162 4z"/>
<path d="M13062 3480 c-170 -24 -303 -90 -422 -209 -97 -97 -149 -181 -185
-294 -36 -112 -48 -208 -42 -317 21 -334 197 -564 507 -662 101 -31 333 -34
420 -4 130 44 251 123 327 214 48 57 123 166 123 178 0 5 -11 17 -24 26 -24
17 -26 17 -79 -16 -91 -54 -157 -71 -282 -71 -100 0 -115 3 -166 28 -110 53
-200 179 -240 335 -18 73 -25 142 -13 142 34 0 751 113 758 120 11 11 -8 141
-30 207 -50 149 -180 265 -346 307 -75 19 -226 27 -306 16z m159 -86 c66 -34
113 -223 93 -374 l-9 -64 -140 -23 c-77 -12 -153 -24 -169 -27 l-29 -6 8 112
c13 216 49 331 115 376 39 26 89 28 131 6z"/>
<path d="M5600 845 l0 -495 45 0 44 0 3 137 3 137 110 -137 110 -136 63 0 63
-1 -103 121 c-57 67 -114 134 -126 150 l-24 30 56 67 c31 37 83 100 117 140
l61 73 -63 -3 -63 -3 -101 -123 -100 -123 -3 330 -2 331 -45 0 -45 0 0 -495z"/>
<path d="M8541 1322 c-72 -36 -89 -89 -90 -279 l-1 -113 -55 0 -55 0 0 -40 0
-40 55 0 55 0 0 -250 0 -250 50 0 50 0 0 250 0 250 75 0 75 0 0 40 0 40 -75 0
-75 0 0 143 c0 174 2 179 89 185 l61 4 0 39 0 39 -62 0 c-40 0 -75 -6 -97 -18z"/>
<path d="M11517 1153 c-4 -3 -7 -55 -7 -115 l0 -108 -70 0 -70 0 0 -40 0 -40
70 0 70 0 0 -250 0 -250 50 0 50 0 0 250 0 250 70 0 70 0 0 40 0 40 -70 0 -70
0 0 115 0 115 -43 0 c-24 0 -47 -3 -50 -7z"/>
<path d="M2503 939 c-52 -10 -93 -31 -138 -70 l-35 -31 0 46 0 46 -45 0 -45 0
0 -455 0 -455 45 0 45 0 0 210 c0 116 3 210 8 210 4 0 20 -14 36 -30 59 -60
169 -86 262 -60 61 17 136 86 171 158 56 114 29 265 -62 357 -63 63 -155 91
-242 74z m122 -108 c80 -36 120 -111 113 -212 -15 -205 -282 -259 -376 -76
-92 177 84 370 263 288z"/>
<path d="M4650 940 c-86 -18 -155 -72 -198 -154 -24 -45 -27 -62 -27 -146 0
-79 4 -102 23 -137 57 -108 142 -163 251 -163 75 0 128 20 184 70 l37 32 0
-46 0 -46 45 0 45 0 0 290 0 290 -45 0 -45 0 0 -46 0 -46 -41 37 c-64 58 -150
82 -229 65z m143 -104 c103 -43 155 -179 108 -281 -76 -164 -296 -164 -372 0
-47 101 4 236 106 281 39 17 117 18 158 0z"/>
<path d="M6735 941 c-60 -16 -106 -45 -155 -98 -79 -87 -101 -197 -60 -307 54
-142 224 -225 372 -182 61 17 147 86 174 137 l15 29 -52 0 c-43 0 -57 -5 -91
-34 -84 -72 -204 -67 -279 11 -40 41 -59 73 -59 97 0 14 30 16 255 16 l255 0
0 38 c0 105 -72 218 -172 268 -53 27 -151 39 -203 25z m165 -111 c19 -10 45
-29 57 -42 26 -27 55 -93 46 -102 -11 -11 -403 -7 -403 4 0 25 42 91 77 119
61 50 148 58 223 21z"/>
<path d="M9420 940 c-86 -18 -155 -72 -198 -154 -24 -45 -27 -62 -27 -146 0
-79 4 -102 23 -137 57 -108 142 -163 251 -163 75 0 128 20 184 70 l37 32 0
-46 0 -46 45 0 45 0 0 290 0 290 -45 0 -45 0 0 -46 0 -46 -41 37 c-64 58 -150
82 -229 65z m143 -104 c103 -43 155 -179 108 -281 -76 -164 -296 -164 -372 0
-47 101 4 236 106 281 39 17 117 18 158 0z"/>
<path d="M12433 932 c-94 -34 -171 -112 -194 -196 -41 -152 22 -294 163 -368
67 -34 184 -32 260 5 69 34 131 101 152 164 9 26 16 77 16 113 0 117 -75 230
-184 275 -61 26 -153 29 -213 7z m153 -87 c41 -8 90 -45 123 -92 22 -32 26
-49 26 -109 0 -62 -4 -76 -29 -113 -97 -139 -307 -122 -371 31 -37 89 -6 197
73 252 39 28 101 47 132 40 8 -1 29 -5 46 -9z"/>
<path d="M244 916 c-105 -49 -164 -136 -172 -252 -6 -94 15 -158 74 -223 61
-68 130 -101 211 -101 111 0 200 50 267 150 27 41 21 50 -33 50 -44 0 -52 -4
-71 -30 -31 -44 -95 -74 -156 -73 -111 1 -199 91 -198 202 1 168 181 266 313
170 22 -16 47 -42 56 -59 14 -27 20 -30 66 -30 48 0 50 1 43 23 -22 71 -82
137 -159 173 -70 33 -170 33 -241 0z"/>
<path d="M3513 914 c-107 -53 -167 -151 -167 -274 -1 -129 60 -222 182 -278
108 -49 256 -13 337 81 19 22 38 52 44 68 l10 29 -50 0 c-44 0 -53 -4 -81 -36
-43 -49 -83 -67 -148 -67 -179 0 -266 212 -141 346 84 92 212 84 297 -17 35
-42 42 -46 81 -46 50 0 52 6 22 67 -27 55 -97 117 -156 137 -73 25 -169 21
-230 -10z"/>
<path d="M10504 916 c-105 -49 -164 -136 -172 -252 -6 -94 15 -158 74 -223 61
-68 130 -101 211 -101 111 0 200 50 267 150 27 41 21 50 -33 50 -44 0 -52 -4
-71 -30 -31 -44 -95 -74 -156 -73 -111 1 -199 91 -198 202 1 168 181 266 313
170 22 -16 47 -42 56 -59 14 -27 20 -30 66 -30 48 0 50 1 43 23 -22 71 -82
137 -159 173 -70 33 -170 33 -241 0z"/>
<path d="M13560 933 c-24 -9 -51 -35 -71 -68 l-19 -30 0 48 0 47 -45 0 -45 0
0 -290 0 -290 45 0 45 0 0 166 c0 192 8 231 62 287 33 35 41 39 75 35 21 -3
46 -8 56 -13 16 -7 18 -2 15 51 l-3 59 -50 2 c-27 1 -57 -1 -65 -4z"/>
<path d="M1180 732 c0 -226 10 -277 62 -331 43 -44 85 -61 150 -61 65 0 125
26 161 69 l27 33 0 -46 0 -46 50 0 50 0 0 290 0 290 -49 0 -50 0 -3 -177 c-3
-167 -5 -181 -28 -228 -29 -57 -65 -82 -133 -91 -59 -8 -97 7 -123 49 -17 28
-19 56 -22 240 l-4 207 -44 0 -44 0 0 -198z"/>
<path d="M14211 688 l121 -241 -92 -201 c-51 -111 -94 -207 -97 -214 -4 -10 8
-12 51 -10 l57 3 185 420 c102 231 192 435 199 453 l14 32 -52 0 -52 0 -80
-190 c-44 -104 -82 -190 -85 -190 -3 0 -45 86 -94 190 l-90 190 -53 0 -53 0
121 -242z"/>
</g>
</svg>
